# xmcd CD database file
#
# Track frame offsets:
#	187
#	13007
#	25582
#	38130
#	50190
#	60025
#	71032
#	81407
#	91847
#	104642
#	116570
#	126657
#	138932
#	150162
#	162420
#	172767
#	184095
#	197372
#	208255
#	219450
#
# Disc length: 3089 seconds
#
# Revision: 0
# Processed by: cddbd v1.4b41PL3 Copyright (c) Steve Scherf et al.
# Submitted via: CDex 1.40Beta5
#
DISCID=110c0f14
DTITLE=Hank Snow - Hank Snow Best Selection
DYEAR=1900
DGENRE=Country
TTITLE0=I'm Movin' On
TTITLE1=The Golden Rocket
TTITLE2=The Rhumba Boogie
TTITLE3=Bluebird Island
TTITLE4=Down The Trail Of Achin' Hearts
TTITLE5=Music Makin' Mama From Memphis
TTITLE6=Gold Rush Is Over
TTITLE7=Lady's Man
TTITLE8=I Wonder Where You Are Tonight
TTITLE9=Married By The Bible. Divorced By The Low
TTITLE10=The Wreck Of The Old '97
TTITLE11=I Went To Your Wedding
TTITLE12=A Fool Such As I
TTITLE13=Honey Moon On A Rocket Ship
TTITLE14=Spanish Fire Ball
TTITLE15=Glory Land March
TTITLE16=I Don't Hurt Anymore
TTITLE17=Let Me Go Lover
TTITLE18=Cryin' Prayin' Waitin' Hopin'
TTITLE19=Yellow Roses
EXTD=ID3G:   2
EXTT0=
EXTT1=
EXTT2=
EXTT3=
EXTT4=
EXTT5=
EXTT6=
EXTT7=
EXTT8=
EXTT9=
EXTT10=
EXTT11=
EXTT12=
EXTT13=
EXTT14=
EXTT15=
EXTT16=
EXTT17=
EXTT18=
EXTT19=
PLAYORDER=
